<mxfile host="app.diagrams.net" agent="Mozilla/5.0 (Windows NT 10.0; Win64; x64) AppleWebKit/537.36 (KHTML, like Gecko) Chrome/135.0.0.0 Safari/537.36" version="27.0.3">
  <diagram name="Page-1" id="KoXFdvXHSLrFWcfs0Muy">
    <mxGraphModel dx="512" dy="561" grid="1" gridSize="10" guides="1" tooltips="1" connect="1" arrows="1" fold="1" page="1" pageScale="1" pageWidth="850" pageHeight="1100" math="0" shadow="0">
      <root>
        <mxCell id="0" />
        <mxCell id="1" parent="0" />
        <mxCell id="Rso_j-YNSpqbKgB8Eyfs-9" style="edgeStyle=orthogonalEdgeStyle;rounded=0;orthogonalLoop=1;jettySize=auto;html=1;exitX=1;exitY=0.25;exitDx=0;exitDy=0;entryX=0;entryY=0.25;entryDx=0;entryDy=0;" edge="1" parent="1" source="Rso_j-YNSpqbKgB8Eyfs-1" target="Rso_j-YNSpqbKgB8Eyfs-3">
          <mxGeometry relative="1" as="geometry" />
        </mxCell>
        <mxCell id="Rso_j-YNSpqbKgB8Eyfs-20" style="edgeStyle=orthogonalEdgeStyle;rounded=0;orthogonalLoop=1;jettySize=auto;html=1;exitX=0.5;exitY=1;exitDx=0;exitDy=0;" edge="1" parent="1" source="Rso_j-YNSpqbKgB8Eyfs-1">
          <mxGeometry relative="1" as="geometry">
            <mxPoint x="100" y="560" as="targetPoint" />
          </mxGeometry>
        </mxCell>
        <mxCell id="Rso_j-YNSpqbKgB8Eyfs-1" value="Frontend&lt;div&gt;(HTML/REACT)&lt;/div&gt;" style="whiteSpace=wrap;html=1;aspect=fixed;" vertex="1" parent="1">
          <mxGeometry x="40" y="160" width="120" height="120" as="geometry" />
        </mxCell>
        <mxCell id="Rso_j-YNSpqbKgB8Eyfs-6" style="edgeStyle=orthogonalEdgeStyle;rounded=0;orthogonalLoop=1;jettySize=auto;html=1;exitX=0.5;exitY=1;exitDx=0;exitDy=0;entryX=0.5;entryY=0;entryDx=0;entryDy=0;" edge="1" parent="1" source="Rso_j-YNSpqbKgB8Eyfs-3" target="Rso_j-YNSpqbKgB8Eyfs-4">
          <mxGeometry relative="1" as="geometry" />
        </mxCell>
        <mxCell id="Rso_j-YNSpqbKgB8Eyfs-8" style="edgeStyle=orthogonalEdgeStyle;rounded=0;orthogonalLoop=1;jettySize=auto;html=1;exitX=0;exitY=0.75;exitDx=0;exitDy=0;entryX=1;entryY=0.75;entryDx=0;entryDy=0;" edge="1" parent="1" source="Rso_j-YNSpqbKgB8Eyfs-3" target="Rso_j-YNSpqbKgB8Eyfs-1">
          <mxGeometry relative="1" as="geometry" />
        </mxCell>
        <mxCell id="Rso_j-YNSpqbKgB8Eyfs-3" value="Node.js Backend&lt;div&gt;(Upload/Download)&lt;/div&gt;" style="rounded=0;whiteSpace=wrap;html=1;" vertex="1" parent="1">
          <mxGeometry x="360" y="160" width="160" height="120" as="geometry" />
        </mxCell>
        <mxCell id="Rso_j-YNSpqbKgB8Eyfs-7" style="edgeStyle=orthogonalEdgeStyle;rounded=0;orthogonalLoop=1;jettySize=auto;html=1;exitX=0.5;exitY=1;exitDx=0;exitDy=0;" edge="1" parent="1" source="Rso_j-YNSpqbKgB8Eyfs-18" target="Rso_j-YNSpqbKgB8Eyfs-5">
          <mxGeometry relative="1" as="geometry" />
        </mxCell>
        <mxCell id="Rso_j-YNSpqbKgB8Eyfs-4" value="AWS SDK (S3-Compatible)" style="rounded=0;whiteSpace=wrap;html=1;" vertex="1" parent="1">
          <mxGeometry x="335" y="400" width="210" height="80" as="geometry" />
        </mxCell>
        <mxCell id="Rso_j-YNSpqbKgB8Eyfs-5" value="IBM Cloud Object Storage&lt;div&gt;- my-secure-storage&lt;/div&gt;&lt;div&gt;- Encrypted&amp;nbsp;&lt;/div&gt;" style="rounded=0;whiteSpace=wrap;html=1;" vertex="1" parent="1">
          <mxGeometry x="340" y="640" width="200" height="120" as="geometry" />
        </mxCell>
        <mxCell id="Rso_j-YNSpqbKgB8Eyfs-10" value="HTTPS" style="text;html=1;align=center;verticalAlign=middle;resizable=0;points=[];autosize=1;strokeColor=none;fillColor=none;" vertex="1" parent="1">
          <mxGeometry x="230" y="150" width="60" height="30" as="geometry" />
        </mxCell>
        <mxCell id="Rso_j-YNSpqbKgB8Eyfs-11" value="JSON / API" style="text;html=1;align=center;verticalAlign=middle;resizable=0;points=[];autosize=1;strokeColor=none;fillColor=none;" vertex="1" parent="1">
          <mxGeometry x="220" y="268" width="80" height="30" as="geometry" />
        </mxCell>
        <mxCell id="Rso_j-YNSpqbKgB8Eyfs-19" value="" style="edgeStyle=orthogonalEdgeStyle;rounded=0;orthogonalLoop=1;jettySize=auto;html=1;exitX=0.5;exitY=1;exitDx=0;exitDy=0;" edge="1" parent="1" source="Rso_j-YNSpqbKgB8Eyfs-4" target="Rso_j-YNSpqbKgB8Eyfs-18">
          <mxGeometry relative="1" as="geometry">
            <mxPoint x="440" y="480" as="sourcePoint" />
            <mxPoint x="440" y="640" as="targetPoint" />
          </mxGeometry>
        </mxCell>
        <mxCell id="Rso_j-YNSpqbKgB8Eyfs-18" value="Signed API Request (HMAC)" style="text;html=1;align=center;verticalAlign=middle;resizable=0;points=[];autosize=1;strokeColor=none;fillColor=none;" vertex="1" parent="1">
          <mxGeometry x="350" y="548" width="180" height="30" as="geometry" />
        </mxCell>
        <mxCell id="Rso_j-YNSpqbKgB8Eyfs-21" value="User Upload Files" style="text;html=1;align=center;verticalAlign=middle;resizable=0;points=[];autosize=1;strokeColor=none;fillColor=none;" vertex="1" parent="1">
          <mxGeometry x="40" y="440" width="120" height="30" as="geometry" />
        </mxCell>
        <mxCell id="Rso_j-YNSpqbKgB8Eyfs-22" value="[User File]" style="text;html=1;align=center;verticalAlign=middle;resizable=0;points=[];autosize=1;strokeColor=none;fillColor=none;" vertex="1" parent="1">
          <mxGeometry x="60" y="558" width="80" height="30" as="geometry" />
        </mxCell>
        <mxCell id="Rso_j-YNSpqbKgB8Eyfs-24" value="" style="edgeStyle=orthogonalEdgeStyle;rounded=0;orthogonalLoop=1;jettySize=auto;html=1;" edge="1" parent="1" source="Rso_j-YNSpqbKgB8Eyfs-23" target="Rso_j-YNSpqbKgB8Eyfs-5">
          <mxGeometry relative="1" as="geometry" />
        </mxCell>
        <mxCell id="Rso_j-YNSpqbKgB8Eyfs-23" value="IAM Policy Enforces Access Control" style="text;html=1;align=center;verticalAlign=middle;resizable=0;points=[];autosize=1;strokeColor=none;fillColor=none;" vertex="1" parent="1">
          <mxGeometry x="335" y="828" width="210" height="30" as="geometry" />
        </mxCell>
      </root>
    </mxGraphModel>
  </diagram>
</mxfile>
